<?xml version="1.0" standalone="no"?><!DOCTYPE svg PUBLIC "-//W3C//DTD SVG 1.1//EN" "http://www.w3.org/Graphics/SVG/1.1/DTD/svg11.dtd"><svg t="1600596651510" class="icon" viewBox="0 0 1024 1024" version="1.1" xmlns="http://www.w3.org/2000/svg" p-id="5185" xmlns:xlink="http://www.w3.org/1999/xlink" width="200" height="200"><defs><style type="text/css"></style></defs><path d="M823.04 823.04A439.893333 439.893333 0 1 1 341.333333 106.666667a439.893333 439.893333 0 0 1 481.706667 716.373333zM512 0a512 512 0 1 0 512 512A512 512 0 0 0 512 0z m205.226667 306.346667a35.84 35.84 0 0 0-50.773334 0L512 460.8 357.546667 306.346667a35.84 35.84 0 0 0-51.2 50.773333L461.226667 512l-154.453334 154.88a35.84 35.84 0 1 0 51.2 50.773333L512 563.2l154.453333 154.88a35.84 35.84 0 1 0 51.2-50.773333L562.773333 512l154.453334-154.88a35.84 35.84 0 0 0 0-50.773333z" fill="#5E5C5C" p-id="5186"></path></svg>